<svg id="Layer_1" data-name="Layer 1" xmlns="http://www.w3.org/2000/svg" viewBox="0 0 500 500"><defs><style>.cls-1{fill:#1c542a;}.cls-2{fill:#8d191c;}.cls-10,.cls-11,.cls-3,.cls-7,.cls-8{fill:#fff;}.cls-4{fill:#bf753c;}.cls-5{fill:#bcbec0;}.cls-6{fill:#be1e2d;}.cls-7{font-size:16.62px;font-family:Bornomala-Regular, Bornomala;}.cls-8{font-size:59.11px;}.cls-11,.cls-8,.cls-9{font-family:LiShadhinata22.0ANSIV2, "Li Shadhinata2 2.0 ANSI V2";}.cls-10,.cls-9{font-size:47.35px;}.cls-9{fill:#febe2e;}.cls-10{font-family:FNHoropeTareqAnsiV1-Regular, FN Horope Tareq Ansi-V1;}.cls-11{font-size:37.19px;}</style></defs><path class="cls-1" d="M182.21,251.35A155.25,155.25,0,0,1,413.58,116.06V51.18H18.33V446.42H413.58V386.64A155.25,155.25,0,0,1,182.21,251.35Z"/><path class="cls-2" d="M409.64,123.07a147.21,147.21,0,1,0,75,128.28A146.41,146.41,0,0,0,409.64,123.07Z"/><path class="cls-3" d="M86.89,305.74c10.1-14.19,14.4-30.57,18.61-46.9,1.24-4.79,3.2-6,7.85-5.85,13.29.32,26.6.11,40.25.11,5.16,18.2,9.21,36.68,19,50.84-6,6.85-12,13.34-17.57,20.11-11.56,13.95-18.87,29.69-19.56,48.12,0,1.14-1.16,2.25-1.78,3.38-.62-1.11-1.77-2.21-1.77-3.32-.11-19.3,0-38.6-.14-57.9,0-2.56.86-3.53,3.26-4.34a14.56,14.56,0,0,0,9.86-16.6,14.4,14.4,0,0,0-14.2-12,14.61,14.61,0,0,0-5.1,28.47c2.7.93,3.32,2.24,3.31,4.82-.08,19,0,38-.11,57,0,1.28-1.13,2.57-1.74,3.85-.57-1.27-1.59-2.52-1.66-3.82-1.29-22.61-11.68-40.76-27.52-56.22C94.37,312.09,90.55,309,86.89,305.74Z"/><path class="cls-4" d="M133.21,207.17c.93,2.31,2.11,3.86,2.07,5.38-.17,6.12-.58,12.25-1.24,18.34-.12,1.11-1.78,2.9-2.79,2.93-7.44.26-14.9.14-23.24.14.87-6.58,1.42-12.75,2.58-18.8a11.29,11.29,0,0,0-1.93-9.23c-7.12-10.34-14-20.87-21.14-31.18-2.33-3.34-2.31-6,.11-9.28,5.16-7,10.11-14.09,15-21.28,1.78-2.63,3.5-3,6.34-1.67,6.9,3.23,13.91,6.22,20.94,9.15,3,1.24,4.08,3.12,3.5,6.29-.55,3-1.33,5-5.09,5.54-6.7,1-13.09,2.1-17.6-5.43l-.76,1.26,2,6.08-5.43,2.39a25.08,25.08,0,0,0,4.23,2.09c6.28,1.63,10.06,5.71,12.84,11.46a193.36,193.36,0,0,0,10.24,17.89C135.89,202.67,136.67,205.47,133.21,207.17Z"/><path class="cls-4" d="M151.62,233.69H135.94c.75-7.88,1.36-15.44,2.31-23,.12-.91,2.05-1.59,3.57-2.69-6.23-10.77-12.68-21.94-19.73-34.12,8.32.53,14.38,3.42,20.08,7.28a17,17,0,0,1,4.39,3.8c3.11,4.34,6.13,3.55,9.64.53,2.45-2.11,5.22-3.84,7.85-5.75l1.34.56c-1.07,5.57-1.45,11.38-3.39,16.63-2,5.5-5.6,10.41-8.34,15.66a14.52,14.52,0,0,0-1.95,5.62C151.44,223.28,151.62,228.33,151.62,233.69Z"/><path class="cls-5" d="M66.59,92.22Q50.75,111.57,34.9,130.89C26,124.31,25.56,108,33.72,97.55,41.24,87.89,57.67,85,66.59,92.22Z"/><path class="cls-3" d="M103.12,236.19h24.12c8.68,0,17.36.19,26-.08,3.85-.12,5,1.23,4.67,4.87-.27,3.08-.05,6.2-.05,9.58H103.12Z"/><path class="cls-5" d="M44,139.49l32.1-39.11c6.48,4.68,7.51,10.9,2.94,16.5q-8.77,10.77-17.57,21.52c-4.49,5.46-5,5.61-11.79,3.45C47.94,141.29,46.25,140.42,44,139.49Z"/><path class="cls-5" d="M41.27,141.11c-2.89-2.45-4.78-3.56-5.88-5.2-.47-.71.37-2.78,1.17-3.77C46.89,119.39,57.37,106.77,67.67,94c2.2-2.73,3.81-2.82,6.51-.61,2.89,2.36,1.93,4,.09,6.27Q58.88,118.28,43.62,137A30.24,30.24,0,0,0,41.27,141.11Z"/><path class="cls-4" d="M150.19,145.53l11.13,11.22c-6,6.86-11.9,13.72-18,20.41-.63.69-2.58.75-3.65.36-3-1.13-5.94-2.65-9.95-4.51Z"/><path class="cls-4" d="M162.77,158.84a8.77,8.77,0,0,1,1.08.47c9.69,8,9.73,9.32.37,17.25-3.52,3-7.18,5.82-10.66,8.85-2.32,2-3.9.71-5.17-1.07-1.38-1.94-5-3.08-2.71-6.55a12.33,12.33,0,0,1,1.18-1.33Z"/><path d="M166.86,194.88c4.94,4.49,10.63,8.26,14.35,13.44,3.47,4.83-3.08,7.36-5.16,10.9-1.44,2.46-3.54,2.9-6,1-3.51-2.77-7.15-5.38-10.73-8.05Z"/><path class="cls-4" d="M108.45,139.64c4.07-5.46,7.7-10.34,11.34-15.21.17-.24.35-.55.6-.65,4-1.51,5.77,2.1,8.13,3.92,1.66,1.29,5.28,2.23,3.14,5.73s-4.43,7.08-6.89,10.44c-.62.86-2.41,1.76-3.21,1.46C117.3,143.72,113.19,141.74,108.45,139.64Z"/><path class="cls-4" d="M125.61,147.51,135.79,132c4.19,4,7.86,7.43,11.36,11a2.87,2.87,0,0,1,.06,2.73c-3.64,5-7.43,9.89-11.93,14.95C137,152.8,132,150,125.61,147.51Z"/><path class="cls-4" d="M114.44,167l16.7-2c-1.43,6.37-3.64,7.64-9.32,5.5-2.08-.77-4.11-1.65-6.15-2.52A7.81,7.81,0,0,1,114.44,167Z"/><rect class="cls-6" x="59.91" y="123.7" width="48.23" height="31.22" rx="5.19" transform="translate(-77.37 118.86) rotate(-51.68)"/><path class="cls-3" d="M130.64,284.7A11.25,11.25,0,1,0,141.89,296,11.25,11.25,0,0,0,130.64,284.7Zm7.57,18.81a10.7,10.7,0,1,1-15.13-15.13l.14-.14a1.22,1.22,0,0,1-.14.33c-.16.24-.43.33-.59.56a2,2,0,0,0-.33.73c-.07.25,0,.55-.11.79s-.32.5-.28.86c.44.13.25-.64.61-.68a2.91,2.91,0,0,1,0,1.14c0,.43-.13.54.13.91s.27.49.67.54.51.2.66.55c.28.06.45.11.49.42a4.35,4.35,0,0,0,.47.32c.19.05.5-.22.67,0s-.37,1.22-.48,1.53a1.25,1.25,0,0,0,.22,1.43c.22.17.45.25.52.55a4.16,4.16,0,0,0,.14.77c.19.41.63.54.94.85a2,2,0,0,1,.39,1.53,10.45,10.45,0,0,0,.31,1.63c.08.57.25,1.1.37,1.66s.45,1.05,1,1c0-.19-.16-.35-.19-.54a5.28,5.28,0,0,0,0-.56,1,1,0,0,1,.18-.93c.09-.11.21-.21.31-.32s0-.16,0-.41.08-.16.27-.25.2-.2.28-.28a4.07,4.07,0,0,0,.53-.57c.15-.23.13-.54.27-.77s.4-.27.64-.44.17-.47.23-.78a3.44,3.44,0,0,1,.65-1.49c.41-.52.58-1,.09-1.46-.25-.25-.38-.18-.71-.27a7,7,0,0,0-.72-.27c-.16,0-.25,0-.39,0s-.11-.12-.25-.12-.48.43-.66.16.2-.57.19-.77-.11-.66-.36-.79a3.52,3.52,0,0,0-.41-.1c-.13-.06-.26-.14-.38-.21s-.45-.28-.52-.46c-.19,0-.32-.11-.52-.11a2.42,2.42,0,0,1-.47.07c-.17,0-.35-.15-.52-.13a1.6,1.6,0,0,0-.4.23,3,3,0,0,1-.86.32c-.46.09-.54-.09-.52-.52l-.07-.14c.18-.48-.13-.51-.48-.63,0-.34.38-.58.2-1-.35,0-.74,1-1,.55s.1-1.08.28-1.32a2.33,2.33,0,0,1,1.11-.72.48.48,0,0,1,.53.28c.1.22,0,.43,0,.68.3-.07.22-.45.21-.65s.15-.32.33-.56.18-.48.38-.7.33-.34.5-.5.41-.16.61-.29-.1-.57.34-.54c.16,0,.08.11.29.06a3.19,3.19,0,0,0,.35-.14c.42-.17.12-.22-.07-.44s.1-.23.35-.28.15-.09.31,0,.06.23.27.22c.4,0,.13-.42,0-.55s-.2-.38-.52-.39a.5.5,0,0,0,0-.34c-.27,0-.32-.16-.52-.24-.35-.13-.29.15-.43.35s-.43.16-.53.4,0,.45-.41.38a1.45,1.45,0,0,0,0-.51,1.23,1.23,0,0,1-.33-.08c0-.41.45-.44.75-.48s.46-.39.76-.45.49.41.84.14.11-.24,0-.39a1.14,1.14,0,0,0-.15-.16v0c.28-.05.55-.09.83-.12a2.56,2.56,0,0,0,.23.44c0,.08.13.13.17.21s-.06.22.06.29.74-.56.87-.67.27-.2.23-.34a10.52,10.52,0,0,1,2.57.4,3,3,0,0,1,.21.26c.14.2.23.38.5.47s.64.05.43.39-.39-.1-.48-.2-.52-.29-.51,0c0,.48,1.1.4.87.93.13.07.38.2.34.39s-.36.08-.35.38a.68.68,0,0,0,.89.61c.46-.16.12-.79.64-.85a.59.59,0,0,1,.51.18c.15.11.24.38.45.36,0-.12-.07-.22-.09-.33a1.38,1.38,0,0,1,.57.37c.14.22.13.52.47.25-.06,0-.08-.14-.11-.17a1,1,0,0,1,.93.56c.41.84-.61.17-.66.61-.25-.08-.37-.29-.58-.41s-.3,0-.38-.08-.08-.23-.18-.31c-.38-.31-1.24.19-1.58.39-.1.06-.2.06-.26.17s0,.22,0,.38-.36.34-.45.53c-.22.44.23,1.09.17,1.58,0,.28-.33.58-.22.81s.22.18.29.3a2.83,2.83,0,0,0,.16.36c.26.36.62.75.92,1.09a.66.66,0,0,0,.66.19,4.68,4.68,0,0,0,.73-.21c.26-.12.29-.3.57-.18s.41.37.66.14c.21.21,0,.56-.07.79a1,1,0,0,0,.24.8.77.77,0,0,1,.22.76,7.17,7.17,0,0,1-.18.9c-.06.3-.25.52-.24.84a5.39,5.39,0,0,1,.1.83,6.15,6.15,0,0,1-.13.86c-.07.28-.26.52-.34.8a.91.91,0,0,0,.13.83c.19.23.38.1.61-.07a4.86,4.86,0,0,0,1-1.38,8.29,8.29,0,0,0,.82-1.39c0-.1.1-.2.15-.31A10.69,10.69,0,0,1,138.21,303.51Z"/><text class="cls-7" transform="translate(76.58 153.29) rotate(-53.31)">Press</text><text class="cls-8" transform="translate(272.37 181.12) scale(0.83 1)">‰`wbK</text><text class="cls-9" transform="translate(282.54 268.04)">msev`</text><text class="cls-10" transform="translate(310.78 224.74)">me©‡kl</text><text class="cls-11" transform="translate(220.28 309.19)">‡`k I RbM‡bi<tspan x="47.36" y="44.63" xml:space="preserve"> K_v e‡j</tspan></text></svg>